<mxfile host="app.diagrams.net" agent="Mozilla/5.0 (Windows NT 10.0; Win64; x64) AppleWebKit/537.36 (KHTML, like Gecko) Chrome/139.0.0.0 Safari/537.36" version="28.1.2">
  <diagram name="Trang-1" id="kikPd4QXjJkxKganKrWe">
    <mxGraphModel dx="1042" dy="623" grid="1" gridSize="10" guides="1" tooltips="1" connect="1" arrows="1" fold="1" page="1" pageScale="1" pageWidth="413" pageHeight="583" math="0" shadow="0">
      <root>
        <mxCell id="0" />
        <mxCell id="1" parent="0" />
        <mxCell id="MB20FCoI7DoMV8oSUzf_-36" style="edgeStyle=orthogonalEdgeStyle;rounded=0;orthogonalLoop=1;jettySize=auto;html=1;entryX=0.5;entryY=0;entryDx=0;entryDy=0;" edge="1" parent="1" source="MB20FCoI7DoMV8oSUzf_-3" target="MB20FCoI7DoMV8oSUzf_-4">
          <mxGeometry relative="1" as="geometry" />
        </mxCell>
        <mxCell id="MB20FCoI7DoMV8oSUzf_-3" value="Start" style="strokeWidth=2;html=1;shape=mxgraph.flowchart.start_1;whiteSpace=wrap;" vertex="1" parent="1">
          <mxGeometry x="364" y="30" width="100" height="60" as="geometry" />
        </mxCell>
        <mxCell id="MB20FCoI7DoMV8oSUzf_-37" style="edgeStyle=orthogonalEdgeStyle;rounded=0;orthogonalLoop=1;jettySize=auto;html=1;" edge="1" parent="1" source="MB20FCoI7DoMV8oSUzf_-4" target="MB20FCoI7DoMV8oSUzf_-26">
          <mxGeometry relative="1" as="geometry" />
        </mxCell>
        <mxCell id="MB20FCoI7DoMV8oSUzf_-4" value="Data&lt;div&gt;(M, N)&lt;/div&gt;" style="shape=parallelogram;html=1;strokeWidth=2;perimeter=parallelogramPerimeter;whiteSpace=wrap;rounded=1;arcSize=12;size=0.23;" vertex="1" parent="1">
          <mxGeometry x="364" y="120" width="100" height="60" as="geometry" />
        </mxCell>
        <mxCell id="MB20FCoI7DoMV8oSUzf_-63" style="edgeStyle=orthogonalEdgeStyle;rounded=0;orthogonalLoop=1;jettySize=auto;html=1;entryX=0;entryY=0.5;entryDx=0;entryDy=0;" edge="1" parent="1" source="MB20FCoI7DoMV8oSUzf_-19" target="MB20FCoI7DoMV8oSUzf_-23">
          <mxGeometry relative="1" as="geometry" />
        </mxCell>
        <mxCell id="MB20FCoI7DoMV8oSUzf_-19" value="Kernel Matrix/ Hamiltonian" style="shape=parallelogram;perimeter=parallelogramPerimeter;whiteSpace=wrap;html=1;fixedSize=1;fontStyle=1;startSize=0;" vertex="1" parent="1">
          <mxGeometry x="354" y="500" width="120" height="60" as="geometry" />
        </mxCell>
        <mxCell id="MB20FCoI7DoMV8oSUzf_-41" style="edgeStyle=orthogonalEdgeStyle;rounded=0;orthogonalLoop=1;jettySize=auto;html=1;entryX=1;entryY=0.5;entryDx=0;entryDy=0;exitX=0.5;exitY=1;exitDx=0;exitDy=0;" edge="1" parent="1" source="MB20FCoI7DoMV8oSUzf_-23" target="MB20FCoI7DoMV8oSUzf_-28">
          <mxGeometry relative="1" as="geometry">
            <mxPoint x="630" y="790" as="targetPoint" />
          </mxGeometry>
        </mxCell>
        <mxCell id="MB20FCoI7DoMV8oSUzf_-23" value="Decomposing to Pauli Matrix" style="rounded=1;whiteSpace=wrap;html=1;absoluteArcSize=1;arcSize=14;strokeWidth=2;" vertex="1" parent="1">
          <mxGeometry x="640" y="495" width="100" height="70" as="geometry" />
        </mxCell>
        <mxCell id="MB20FCoI7DoMV8oSUzf_-38" style="edgeStyle=orthogonalEdgeStyle;rounded=0;orthogonalLoop=1;jettySize=auto;html=1;entryX=0.5;entryY=0;entryDx=0;entryDy=0;" edge="1" parent="1" source="MB20FCoI7DoMV8oSUzf_-26" target="MB20FCoI7DoMV8oSUzf_-19">
          <mxGeometry relative="1" as="geometry" />
        </mxCell>
        <mxCell id="MB20FCoI7DoMV8oSUzf_-26" value="Trainable Quantum Feature Map" style="swimlane;whiteSpace=wrap;html=1;" vertex="1" parent="1">
          <mxGeometry x="298.5" y="210" width="231" height="250" as="geometry" />
        </mxCell>
        <mxCell id="MB20FCoI7DoMV8oSUzf_-13" value="Compute Kernel Matrix" style="rounded=1;whiteSpace=wrap;html=1;absoluteArcSize=1;arcSize=14;strokeWidth=2;" vertex="1" parent="MB20FCoI7DoMV8oSUzf_-26">
          <mxGeometry x="14" y="200" width="90" height="35" as="geometry" />
        </mxCell>
        <mxCell id="MB20FCoI7DoMV8oSUzf_-12" value="Optimize" style="rounded=1;whiteSpace=wrap;html=1;absoluteArcSize=1;arcSize=14;strokeWidth=2;" vertex="1" parent="MB20FCoI7DoMV8oSUzf_-26">
          <mxGeometry x="14" y="147.5" width="90" height="35" as="geometry" />
        </mxCell>
        <mxCell id="MB20FCoI7DoMV8oSUzf_-11" value="Loss Function" style="rounded=1;whiteSpace=wrap;html=1;absoluteArcSize=1;arcSize=14;strokeWidth=2;" vertex="1" parent="MB20FCoI7DoMV8oSUzf_-26">
          <mxGeometry x="14" y="97.5" width="90" height="35" as="geometry" />
        </mxCell>
        <mxCell id="MB20FCoI7DoMV8oSUzf_-27" value="Parametrized Circuit" style="rounded=1;whiteSpace=wrap;html=1;absoluteArcSize=1;arcSize=14;strokeWidth=2;" vertex="1" parent="MB20FCoI7DoMV8oSUzf_-26">
          <mxGeometry x="14" y="37.5" width="90" height="40" as="geometry" />
        </mxCell>
        <mxCell id="MB20FCoI7DoMV8oSUzf_-49" style="edgeStyle=orthogonalEdgeStyle;rounded=0;orthogonalLoop=1;jettySize=auto;html=1;entryX=0.5;entryY=0;entryDx=0;entryDy=0;" edge="1" parent="1" source="MB20FCoI7DoMV8oSUzf_-28" target="MB20FCoI7DoMV8oSUzf_-34">
          <mxGeometry relative="1" as="geometry" />
        </mxCell>
        <mxCell id="MB20FCoI7DoMV8oSUzf_-28" value="VQEplus" style="swimlane;whiteSpace=wrap;html=1;fontStyle=1" vertex="1" parent="1">
          <mxGeometry x="274" y="600" width="280" height="270" as="geometry" />
        </mxCell>
        <mxCell id="MB20FCoI7DoMV8oSUzf_-31" value="Hadamard Circuit" style="rounded=1;whiteSpace=wrap;html=1;absoluteArcSize=1;arcSize=14;strokeWidth=2;" vertex="1" parent="MB20FCoI7DoMV8oSUzf_-28">
          <mxGeometry x="34" y="50" width="106" height="40" as="geometry" />
        </mxCell>
        <mxCell id="MB20FCoI7DoMV8oSUzf_-30" value="Compute Expectation" style="rounded=1;whiteSpace=wrap;html=1;absoluteArcSize=1;arcSize=14;strokeWidth=2;" vertex="1" parent="MB20FCoI7DoMV8oSUzf_-28">
          <mxGeometry x="34" y="110" width="106" height="40" as="geometry" />
        </mxCell>
        <mxCell id="MB20FCoI7DoMV8oSUzf_-29" value="Compute l1 Norm" style="rounded=1;whiteSpace=wrap;html=1;absoluteArcSize=1;arcSize=14;strokeWidth=2;" vertex="1" parent="MB20FCoI7DoMV8oSUzf_-28">
          <mxGeometry x="34" y="170" width="106" height="40" as="geometry" />
        </mxCell>
        <mxCell id="MB20FCoI7DoMV8oSUzf_-32" value="Compute l alpha" style="rounded=1;whiteSpace=wrap;html=1;absoluteArcSize=1;arcSize=14;strokeWidth=2;" vertex="1" parent="MB20FCoI7DoMV8oSUzf_-28">
          <mxGeometry x="37" y="220" width="103" height="40" as="geometry" />
        </mxCell>
        <mxCell id="MB20FCoI7DoMV8oSUzf_-33" value="Minimize Loss Function" style="rounded=1;whiteSpace=wrap;html=1;absoluteArcSize=1;arcSize=14;strokeWidth=2;" vertex="1" parent="MB20FCoI7DoMV8oSUzf_-28">
          <mxGeometry x="160" y="60" width="100" height="80" as="geometry" />
        </mxCell>
        <mxCell id="MB20FCoI7DoMV8oSUzf_-64" style="edgeStyle=orthogonalEdgeStyle;rounded=0;orthogonalLoop=1;jettySize=auto;html=1;entryX=1;entryY=0.5;entryDx=0;entryDy=0;" edge="1" parent="1" source="MB20FCoI7DoMV8oSUzf_-34" target="MB20FCoI7DoMV8oSUzf_-47">
          <mxGeometry relative="1" as="geometry" />
        </mxCell>
        <mxCell id="MB20FCoI7DoMV8oSUzf_-34" value="Optimial &quot;Xi&quot;" style="shape=parallelogram;html=1;strokeWidth=2;perimeter=parallelogramPerimeter;whiteSpace=wrap;rounded=1;arcSize=12;size=0.23;" vertex="1" parent="1">
          <mxGeometry x="364" y="900" width="100" height="60" as="geometry" />
        </mxCell>
        <mxCell id="MB20FCoI7DoMV8oSUzf_-42" style="edgeStyle=orthogonalEdgeStyle;rounded=0;orthogonalLoop=1;jettySize=auto;html=1;entryX=0;entryY=0.5;entryDx=0;entryDy=0;" edge="1" parent="1" source="MB20FCoI7DoMV8oSUzf_-35" target="MB20FCoI7DoMV8oSUzf_-28">
          <mxGeometry relative="1" as="geometry" />
        </mxCell>
        <mxCell id="MB20FCoI7DoMV8oSUzf_-48" style="edgeStyle=orthogonalEdgeStyle;rounded=0;orthogonalLoop=1;jettySize=auto;html=1;" edge="1" parent="1" source="MB20FCoI7DoMV8oSUzf_-35" target="MB20FCoI7DoMV8oSUzf_-47">
          <mxGeometry relative="1" as="geometry" />
        </mxCell>
        <mxCell id="MB20FCoI7DoMV8oSUzf_-35" value="Ansatz" style="shape=parallelogram;html=1;strokeWidth=2;perimeter=parallelogramPerimeter;whiteSpace=wrap;rounded=1;arcSize=12;size=0.23;" vertex="1" parent="1">
          <mxGeometry x="40" y="648.75" width="160" height="172.5" as="geometry" />
        </mxCell>
        <mxCell id="MB20FCoI7DoMV8oSUzf_-66" style="edgeStyle=orthogonalEdgeStyle;rounded=0;orthogonalLoop=1;jettySize=auto;html=1;entryX=0;entryY=0.5;entryDx=0;entryDy=0;" edge="1" parent="1" source="MB20FCoI7DoMV8oSUzf_-47" target="MB20FCoI7DoMV8oSUzf_-54">
          <mxGeometry relative="1" as="geometry">
            <Array as="points">
              <mxPoint x="120" y="1060" />
            </Array>
          </mxGeometry>
        </mxCell>
        <mxCell id="MB20FCoI7DoMV8oSUzf_-47" value="U_A(&quot;xi&quot;)" style="shape=parallelogram;html=1;strokeWidth=2;perimeter=parallelogramPerimeter;whiteSpace=wrap;rounded=1;arcSize=12;size=0.23;" vertex="1" parent="1">
          <mxGeometry x="70" y="900" width="100" height="60" as="geometry" />
        </mxCell>
        <mxCell id="MB20FCoI7DoMV8oSUzf_-56" style="edgeStyle=orthogonalEdgeStyle;rounded=0;orthogonalLoop=1;jettySize=auto;html=1;" edge="1" parent="1" source="MB20FCoI7DoMV8oSUzf_-54" target="MB20FCoI7DoMV8oSUzf_-55">
          <mxGeometry relative="1" as="geometry" />
        </mxCell>
        <mxCell id="MB20FCoI7DoMV8oSUzf_-54" value="Take Statevector" style="rounded=1;whiteSpace=wrap;html=1;absoluteArcSize=1;arcSize=14;strokeWidth=2;" vertex="1" parent="1">
          <mxGeometry x="340" y="1020" width="148" height="80" as="geometry" />
        </mxCell>
        <mxCell id="MB20FCoI7DoMV8oSUzf_-57" style="edgeStyle=orthogonalEdgeStyle;rounded=0;orthogonalLoop=1;jettySize=auto;html=1;" edge="1" parent="1" source="MB20FCoI7DoMV8oSUzf_-55" target="MB20FCoI7DoMV8oSUzf_-58">
          <mxGeometry relative="1" as="geometry">
            <mxPoint x="414" y="1390" as="targetPoint" />
          </mxGeometry>
        </mxCell>
        <mxCell id="MB20FCoI7DoMV8oSUzf_-55" value="StateVector (alpha)" style="shape=parallelogram;html=1;strokeWidth=2;perimeter=parallelogramPerimeter;whiteSpace=wrap;rounded=1;arcSize=12;size=0.23;" vertex="1" parent="1">
          <mxGeometry x="337" y="1140" width="154" height="84" as="geometry" />
        </mxCell>
        <mxCell id="MB20FCoI7DoMV8oSUzf_-60" style="edgeStyle=orthogonalEdgeStyle;rounded=0;orthogonalLoop=1;jettySize=auto;html=1;" edge="1" parent="1" source="MB20FCoI7DoMV8oSUzf_-58" target="MB20FCoI7DoMV8oSUzf_-59">
          <mxGeometry relative="1" as="geometry" />
        </mxCell>
        <mxCell id="MB20FCoI7DoMV8oSUzf_-58" value="&lt;b&gt;Support Vector&lt;/b&gt;" style="shape=parallelogram;html=1;strokeWidth=2;perimeter=parallelogramPerimeter;whiteSpace=wrap;rounded=1;arcSize=12;size=0.23;" vertex="1" parent="1">
          <mxGeometry x="329" y="1260" width="170" height="80" as="geometry" />
        </mxCell>
        <mxCell id="MB20FCoI7DoMV8oSUzf_-68" style="edgeStyle=orthogonalEdgeStyle;rounded=0;orthogonalLoop=1;jettySize=auto;html=1;entryX=0.5;entryY=0;entryDx=0;entryDy=0;" edge="1" parent="1" source="MB20FCoI7DoMV8oSUzf_-59" target="MB20FCoI7DoMV8oSUzf_-62">
          <mxGeometry relative="1" as="geometry" />
        </mxCell>
        <mxCell id="MB20FCoI7DoMV8oSUzf_-59" value="Decision Function" style="rounded=1;whiteSpace=wrap;html=1;absoluteArcSize=1;arcSize=14;strokeWidth=2;" vertex="1" parent="1">
          <mxGeometry x="364" y="1370" width="100" height="100" as="geometry" />
        </mxCell>
        <mxCell id="MB20FCoI7DoMV8oSUzf_-70" style="edgeStyle=orthogonalEdgeStyle;rounded=0;orthogonalLoop=1;jettySize=auto;html=1;" edge="1" parent="1" source="MB20FCoI7DoMV8oSUzf_-62" target="MB20FCoI7DoMV8oSUzf_-69">
          <mxGeometry relative="1" as="geometry" />
        </mxCell>
        <mxCell id="MB20FCoI7DoMV8oSUzf_-62" value="y = {-1; 1}" style="shape=parallelogram;html=1;strokeWidth=2;perimeter=parallelogramPerimeter;whiteSpace=wrap;rounded=1;arcSize=12;size=0.23;" vertex="1" parent="1">
          <mxGeometry x="364" y="1510" width="100" height="60" as="geometry" />
        </mxCell>
        <mxCell id="MB20FCoI7DoMV8oSUzf_-69" value="End" style="strokeWidth=2;html=1;shape=mxgraph.flowchart.terminator;whiteSpace=wrap;" vertex="1" parent="1">
          <mxGeometry x="364" y="1630" width="100" height="60" as="geometry" />
        </mxCell>
      </root>
    </mxGraphModel>
  </diagram>
</mxfile>
